<?xml version="1.0" encoding="UTF-8"?>
<!DOCTYPE svg PUBLIC "-//W3C//DTD SVG 1.1//EN" "http://www.w3.org/Graphics/SVG/1.1/DTD/svg11.dtd">
<!-- Creator: CorelDRAW 2020 (64-Bit) -->
<svg xmlns="http://www.w3.org/2000/svg" xml:space="preserve" width="100mm" height="33mm" version="1.1" style="shape-rendering:geometricPrecision; text-rendering:geometricPrecision; image-rendering:optimizeQuality; fill-rule:evenodd; clip-rule:evenodd"
viewBox="0 0 10000 3300"
 xmlns:xlink="http://www.w3.org/1999/xlink"
 xmlns:xodm="http://www.corel.com/coreldraw/odm/2003">
 <defs>
  <style type="text/css">
   <![CDATA[
    .fil1 {fill:url(#id0)}
    .fil0 {fill:url(#id1);fill-rule:nonzero}
   ]]>
  </style>
  <linearGradient id="id0" gradientUnits="userSpaceOnUse" x1="622.86" y1="648.65" x2="3104.37" y2="3136.69">
   <stop offset="0" style="stop-opacity:1; stop-color:purple"/>
   <stop offset="1" style="stop-opacity:1; stop-color:darkblue"/>
  </linearGradient>
  <linearGradient id="id1" gradientUnits="userSpaceOnUse" x1="3124.9" y1="-689.66" x2="11506.97" y2="3099.59">
   <stop offset="0" style="stop-opacity:1; stop-color:darkblue"/>
   <stop offset="1" style="stop-opacity:1; stop-color:#00A6D6"/>
  </linearGradient>
 </defs>
 <g id="Layer_x0020_1">
  <metadata id="CorelCorpID_0Corel-Layer"/>
  <g id="_1587530056256">
   <path class="fil0" d="M4476.14 1337.66c-17.03,23.61 -38.52,47.45 -64.46,71.34 -25.1,23.2 -54.53,46.41 -88.15,69.46l-0.25 0.17c-55.73,37.31 -113.17,65.46 -172.28,84.29 -59.34,18.89 -120.15,28.38 -182.37,28.38 -158.21,0 -281.28,-55.1 -369.78,-165.24 -51.54,-64.16 -85.39,-142.18 -101.46,-233.82 -15.84,-90.42 -14.4,-194.12 4.36,-310.92 17.28,-107.61 47.98,-204.98 91.93,-291.94 44.1,-87.23 101.53,-163.84 172.12,-229.69 64.71,-60.11 133.16,-105.34 205.27,-135.49 72.45,-30.31 148.52,-45.49 228.02,-45.49 31.38,0 63.5,2.81 96.22,8.43 32.33,5.56 64.99,13.9 97.92,25.01l73.05 23.93c14.55,4.65 19.84,7.01 20.66,7.01 9.98,0 18.88,-3.37 26.61,-10.1 9.11,-7.8 17.2,-20.34 24.3,-37.52l4.94 -11.96 83.48 -6.76 -61.03 474.11 -74.59 7.48 -1.3 -22.33c-7,-120.87 -34.57,-210.95 -82.68,-270.11 -46.89,-57.7 -114.59,-86.6 -203,-86.6 -25.89,0 -52.44,2.42 -79.51,7.22 -27.28,4.84 -55.38,12.15 -84.02,21.81 -31.78,12.06 -60.59,25.81 -86.22,41.09 -25.62,15.27 -48.35,32.28 -68.18,50.83 -54.69,53.5 -100.35,121.03 -136.85,202.44 -36.87,82.26 -64.52,178.8 -82.88,289.46 -16.26,97.69 -17.82,184.33 -4.65,259.8 12.98,74.34 40.35,138.11 82.03,191.23 35.08,45.2 76.18,78.94 123.26,101.34 47.27,22.44 101.11,33.7 161.45,33.7 67.63,0 134.64,-16.6 200.98,-49.7 67.23,-33.5 134.03,-84.05 200.44,-151.49l20.53 -20.86 33.7 70.95 -7.61 10.54zm-383.68 590.2c-33.91,2.94 -62.53,7.94 -85.75,14.94 -22.03,6.66 -39.29,15.09 -51.6,25.23 -13.53,12.36 -25.89,30.15 -37,53.26 -11.79,24.58 -22.03,54.82 -30.53,90.6l-171.24 718.39c-19.78,83.01 -46.42,153.51 -79.81,211.42 -33.95,58.8 -74.9,104.69 -122.82,137.55 -25.34,18.35 -52.25,32.28 -80.64,41.53 -28.49,9.29 -58.44,13.98 -89.7,13.98 -29.35,0 -54.25,-4.88 -74.62,-14.54 -21.86,-10.36 -38.26,-26.03 -49.14,-46.87 -7.07,-13.99 -11.47,-28.58 -13.11,-43.82 -1.59,-15.02 -0.52,-30.7 3.33,-46.89l0.5 -1.77c9.76,-29.7 22.45,-51.88 38.06,-66.3 17.63,-16.3 38.31,-22.85 62.01,-19.52 22.61,3.2 40.66,13.23 54.02,30.11 12.48,15.76 20.32,37.08 23.34,63.84 2.48,19.6 5.84,33.85 9.94,42.74 1.32,2.83 -1.2,4.28 0.07,4.28l0.64 0.08c28.49,0.98 52.63,-9.68 72.33,-31.93 21.57,-24.38 38.55,-62.51 50.87,-114.27l211.76 -888.3c8.29,-34.85 12.42,-63.9 12.38,-87.09 -0.02,-20.48 -3.32,-35.85 -9.72,-46.01 -7.08,-9.31 -19.48,-17.29 -37.05,-23.97 -20.3,-7.7 -46.75,-13.32 -79.18,-16.75l-23.82 -2.53 18.19 -76.23 511.68 0 -18.51 77.57 -14.88 1.27zm539.75 1211.38c-25.16,6.24 -56.63,16.12 -94.19,29.48 -38.14,13.58 -81.24,30.31 -129.2,50.11l-38.7 16 45.6 -172.53 -8.94 8.41c-25.05,23.41 -50.23,46.54 -75.53,69.37l-2.03 1.6c-37.51,26.29 -73.36,46.43 -107.31,60.4 -34.83,14.31 -67.72,22.13 -98.5,23.45l-0.82 0.09c-24.69,0 -46.79,-4.69 -66.17,-14.09 -19.67,-9.58 -36.2,-23.89 -49.42,-42.98 -18.3,-25.9 -28.78,-58.3 -31.45,-97 -2.52,-36.77 2.05,-79.59 13.65,-128.32l115.05 -482.58c9.8,-41.16 9.01,-71.6 -2.46,-91.14 -10.65,-18.29 -32.51,-28.45 -65.5,-30.44l-25.06 -1.51 16.32 -68.49 258.43 0 -158.51 664.93c-4.31,18.09 -6.48,34.44 -6.48,48.86 0,20.42 4.42,36.55 13.21,48.22 8.8,11.7 22.72,20.04 41.63,24.89 13,3.33 28.44,5.01 46.29,5.01 23.69,0 48.7,-5.83 74.94,-17.44 27.16,-12.04 55.82,-30.33 85.79,-54.78l0.31 -0.26c16.28,-12.78 29.97,-28.45 40.98,-46.93 11.25,-18.87 19.92,-40.95 25.91,-66.07l98.45 -413.02c5.15,-21.55 7.69,-39.73 7.61,-54.26 -0.08,-12.17 -1.96,-21.31 -5.63,-27.26l-0.25 -0.32c-5.33,-9.02 -14.81,-16.43 -28.34,-22.12 -15.72,-6.59 -36.37,-10.78 -61.86,-12.45l-24.87 -1.62 17.97 -75.38 277.24 0 -164.46 689.94c-3.69,15.52 -5.55,29.42 -5.55,41.64 0,16.17 3.34,28.79 9.92,37.78 6.53,8.89 16.95,15.2 31.12,18.83 9.69,2.47 21.2,3.72 34.52,3.72l26.55 0 -17.9 75.19 -12.36 3.07zm1014.82 -798.68c-16.67,3.31 -30.26,6.9 -40.64,10.61 -9.4,3.38 -16.11,6.75 -20.03,10.01l-0.9 0.7c-9.44,7.04 -20.63,19.45 -33.49,37.16 -13.63,18.78 -28.7,42.93 -45.12,72.37 -16.16,28.95 -44.88,89.5 -79.91,163.38 -103.86,219.01 -262.07,552.52 -335.04,559.16 -26.61,2.42 -43.64,-17.62 -47.81,-66.8 -14.49,-169.97 -28.95,-316.54 -43.23,-439.59 -14.42,-124.12 -28.68,-224.69 -42.74,-301.54 -2.01,-10.01 -5.26,-18.29 -9.7,-24.66 -3.69,-5.34 -8.4,-9.6 -13.98,-12.65 -25.64,-4.06 -51.36,-7.59 -77.06,-11.24l16.3 -68.4 358.16 0 -16.55 69.37 -13.7 2.21c-16.67,2.68 -30.66,5.42 -41.85,8.08 -9.73,2.31 -16.25,4.33 -19.49,5.95 -8.1,4.36 -14.94,10.5 -20.38,18.31 -5.83,8.51 -10.34,19.19 -13.4,32.06 -2.36,9.94 -3.71,20.08 -3.94,30.3 -0.25,10.16 0.63,20.91 2.54,32.13l51.82 434.72c39.47,-70.38 80.09,-143.91 121.82,-220.52 51,-93.6 105.9,-196 164.53,-306.99l3.54 -10.48 2.5 -8.71c0.96,-4.13 0.9,-6.75 -0.17,-7.83 -3.23,-3.26 -10.62,-5.57 -22,-6.85l-23.72 -2.66 16.46 -69.09 256.67 0 -16.42 68.9 -13.07 2.59zm620.14 555.65c-19.05,35.93 -40.93,70.07 -65.51,102.34 -24.57,32.25 -51.81,62.58 -81.59,90.9 -46.44,45.07 -94.17,78.99 -143.04,101.63 -49.69,23.04 -100.46,34.54 -152.15,34.54 -51.19,0 -95.23,-10.98 -131.95,-32.88 -37.06,-22.07 -66.18,-54.99 -87.21,-98.64 -20.28,-41.55 -31.07,-91.07 -32.34,-148.4 -1.25,-55.88 6.54,-119.27 23.42,-190.09 19.86,-83.37 47.98,-157.78 84.2,-223.02 36.46,-65.68 81.12,-122.01 133.83,-168.9l0.23 -0.17c42.33,-36.6 85,-64.36 127.85,-82.99 43.39,-18.83 87.2,-28.58 131.37,-29.05 42.01,-0.09 78.7,6.91 110.23,20.83 32.16,14.21 58.69,35.63 79.57,64.12 23.95,32.28 39.29,72.18 45.98,119.63 6.46,45.96 4.86,99.33 -4.87,159.99l-2.92 18.07 -554.2 0c-16.52,77.35 -24.94,145.21 -25.28,203.49 -0.37,61.24 8.11,111.98 25.35,152.01l0.08 0.24c13.3,31.8 31.49,55.51 54.46,71.04 22.95,15.5 51.42,23.26 85.31,23.26 54.6,0 108.75,-17.93 162.36,-53.75 54.94,-36.7 109.44,-92.22 163.51,-166.43l10.08 -13.85 53.96 25.83 -10.73 20.25zm-111.34 -355.34c1.25,-12.69 1.92,-24.69 2.02,-35.93 0.42,-45.61 -8.15,-80.66 -25.63,-105 -16.76,-23.32 -42.75,-37.55 -77.87,-42.56 -9.25,-1.32 -18.95,-2.05 -28.97,-2.14 -47.71,-0.54 -92.77,16.67 -135.08,51.62 -37.41,30.91 -72.8,75.62 -106.08,134.01l371.61 0zm858.3 670.42l-359.21 0 16.92 -71.12 13.99 -2.06c19.36,-2.83 36.28,-7 50.68,-12.43 13.38,-5.06 24.58,-11.17 33.39,-18.31 13.26,-12.38 25.24,-29.68 35.91,-51.84 11.26,-23.17 20.89,-51.73 28.93,-85.45l89.46 -375.21c7.38,-30.98 11.09,-58.22 11.09,-81.65 0,-27.56 -5.17,-49.18 -15.47,-64.72 -9.67,-14.73 -24.82,-24.73 -45.21,-29.94 -11.31,-2.9 -24.44,-4.37 -39.28,-4.37 -24.03,0 -53.15,10.09 -87.29,30.26 -34.74,20.5 -74.26,51.28 -118.57,92.16l-120.68 506.28c-6.98,29.33 -4.54,51.34 7.32,66 12.73,15.76 37.08,25.46 72.86,29.14l23.89 2.48 -16.86 70.78 -384 0 17.05 -71.62 14.53 -1.64c19.96,-2.23 37.76,-6.49 53.19,-12.65 14.48,-5.82 27.03,-13.4 37.41,-22.72 10.23,-10.05 19.61,-24.49 28.13,-43.19 9.03,-19.82 17.01,-44.32 23.89,-73.24l107.42 -450.55c6.61,-27.74 9.92,-51.19 9.92,-70.28 0,-16.34 -2.35,-28.73 -7.06,-37.05 -3.67,-6.53 -9.4,-10.81 -17.01,-12.76 -3.65,-0.93 -8.01,-1.4 -12.97,-1.4 -7,0 -13.75,0.28 -20.13,0.84 -6.9,0.59 -13.15,1.41 -18.55,2.4l-31.55 5.88 17.77 -74.58 11.28 -3.61c38.52,-12.3 77.22,-25.33 115.86,-39.02 38.29,-13.57 76.53,-27.8 114.53,-42.61l36.99 -14.41 -38.6 162.04 59.88 -48.92c28.5,-22.87 49.17,-38.93 61.95,-48.06l0.64 -0.43c29.35,-19.39 57.34,-34.02 83.89,-43.77 27.47,-10.12 53.65,-15.2 78.43,-15.2 15.72,0 30.35,1.73 43.75,5.17 33.41,8.56 58.63,27.49 75.53,56.74 15.92,27.56 23.93,63.84 23.93,108.76 -0.11,42.24 -7.07,92.67 -20.97,151.06l-104.42 438.06c-9.29,39.06 -8.36,68.63 2.86,88.52 10.69,18.94 32.18,30.65 64.44,35.06l23.05 3.18 -16.67 70 -16.26 0zm533.44 -136.62c-14.68,22.89 -31.23,43.36 -49.61,61.41 -18.3,17.96 -38.47,33.62 -60.44,46.89 -21.68,13.99 -43.23,24.58 -64.59,31.71 -21.82,7.26 -43.29,10.94 -64.3,10.94 -26.43,0 -48.71,-5.06 -66.61,-15.22 -19.05,-10.81 -32.74,-27.06 -40.85,-48.66 -8.05,-22.09 -10.94,-50.89 -8.75,-86.43 2.06,-33.7 8.73,-74.12 19.92,-121.1l140.21 -588.21 -118.78 0 6.35 -26.76 7.17 -28.17c3.03,-10.52 6.61,-17.53 10.78,-21.01l3.65 -3.02 4.41 -1.13c5.47,-1.36 15.03,-5.99 28.58,-13.81 14.03,-8.11 32.03,-19.65 53.88,-34.63 25.09,-21.02 50.77,-48.56 76.99,-82.65 26.97,-35.06 54.42,-76.85 82.26,-125.33l6.05 -10.55 58.94 0 -59.63 250.13 192.93 0 -23.11 96.93 -192.92 0 -132.84 557.32c-8.74,36.6 -14.82,66.84 -18.22,90.58 -3.11,21.62 -3.98,37.05 -2.69,46.2 2.21,10.61 7.21,18.28 14.97,23.06 9.58,5.88 23.76,8.61 42.39,8.11 18.67,-0.37 36.49,-4.97 53.38,-13.66 17.34,-9 33.86,-22.38 49.41,-40.04l11.15 -12.65 52.32 30.4 -12.4 19.35zm766.84 64.57c-25.15,6.24 -56.63,16.12 -94.18,29.48 -38.15,13.58 -81.25,30.31 -129.2,50.11l-38.71 16 45.6 -172.53 -8.94 8.41c-25.05,23.41 -50.23,46.54 -75.53,69.37l-2.02 1.6c-37.52,26.29 -73.37,46.43 -107.32,60.4 -34.82,14.31 -67.71,22.13 -98.5,23.45l-0.81 0.09c-24.7,0 -46.79,-4.69 -66.17,-14.09 -19.68,-9.58 -36.21,-23.89 -49.42,-42.98 -18.3,-25.9 -28.78,-58.3 -31.45,-97 -2.52,-36.77 2.04,-79.59 13.65,-128.32l115.05 -482.58c9.79,-41.16 9,-71.6 -2.46,-91.14 -10.65,-18.29 -32.51,-28.45 -65.51,-30.44l-25.05 -1.51 16.32 -68.49 258.42 0 -158.48 664.93c-4.32,18.12 -6.48,34.46 -6.48,48.88 0,20.43 4.41,36.51 13.19,48.2 8.79,11.72 22.72,20.04 41.6,24.89 13.01,3.33 28.47,5.01 46.31,5.01 23.7,0 48.71,-5.83 74.95,-17.44 27.16,-12.04 55.82,-30.33 85.79,-54.78l0.31 -0.26c16.28,-12.78 29.97,-28.45 40.97,-46.93 11.26,-18.87 19.93,-40.95 25.91,-66.07l98.46 -413.02c5.15,-21.55 7.69,-39.73 7.61,-54.26 -0.09,-12.17 -1.96,-21.31 -5.63,-27.26l-0.25 -0.32c-5.34,-9.02 -14.82,-16.43 -28.35,-22.12 -15.71,-6.59 -36.37,-10.78 -61.86,-12.45l-24.86 -1.62 17.97 -75.38 277.24 0 -164.47 689.94c-3.69,15.52 -5.54,29.42 -5.54,41.64 0,16.17 3.33,28.79 9.92,37.78 6.52,8.89 16.94,15.2 31.12,18.83 9.69,2.47 21.19,3.72 34.51,3.72l26.55 0 -17.9 75.19 -12.36 3.07zm853.2 -13.28l-98.42 39.65 -181.06 73.74 32.31 -135.59c-6.75,7.31 -13.78,14.36 -21.07,21.14 -17.38,16.11 -35.95,30.68 -55.67,43.65 -28.24,18.37 -56.69,32.17 -85.45,41.33 -29.12,9.28 -58.45,13.9 -88.04,13.9 -71.57,0 -129.76,-24.86 -174.91,-74.53l-0.23 -0.26c-35.97,-40.97 -57.34,-94.71 -64.03,-161.05 -6.48,-64.21 0.84,-140.49 21.85,-228.65 15.63,-65.54 39.26,-127.39 70.86,-185.5 31.58,-58.06 71.01,-112.22 118.24,-162.37 47.16,-50.5 94.64,-88.54 142.35,-113.99 48.79,-26.02 97.83,-39.04 147.15,-39.04 60.44,0 116.96,29.79 169.19,89.28l67.59 -283.6c8.28,-34.78 8.03,-59.81 -0.81,-74.97 -7.73,-13.29 -24.38,-19.97 -49.96,-19.97l-17.05 0.37 -10.77 1.12 -31.35 5.56 18.76 -78.56 12.3 -3.09c25.59,-6.4 58.17,-16.28 97.64,-29.53 39.33,-13.21 86.02,-30.03 139.91,-50.33l36.62 -13.79 -272.21 1141.96c-5.57,23.39 -8.3,42.87 -8.18,58.26 0.11,12.86 2.11,22.29 5.94,28.08l0.34 0.41c3.92,6.21 11.48,11.05 22.63,14.36 14.01,4.13 32.6,5.68 55.73,4.6l27.77 -1.3 -17.8 74.69 -10.17 4.02zm-207.24 -189.69l89.52 -375.58c7.25,-30.48 8.9,-58.5 4.9,-83.9 -3.92,-24.64 -13.26,-47.17 -28.03,-67.4 -13.64,-18.2 -29.08,-31.82 -46.17,-40.75 -16.97,-8.86 -35.99,-13.31 -56.92,-13.31 -58.23,0 -114.13,23.3 -167.99,69.84 -35.26,31.13 -65.38,69.7 -90.24,115.65 -25.22,46.57 -45.19,100.76 -59.93,162.57 -16.86,70.77 -24.17,132.71 -21.94,185.67 2.17,51.32 13.4,94.23 33.62,128.6 32.18,55.32 79.82,79.36 142.89,72.16 18.05,-2.18 36.74,-7.78 56,-16.67 19.91,-9.21 40.58,-22.05 61.9,-38.37 21.22,-16.28 38.81,-32.88 52.73,-49.78 13.09,-15.89 23.01,-32.19 29.66,-48.73zm989.01 -40.06c-19.05,35.93 -40.94,70.07 -65.51,102.34 -24.57,32.25 -51.82,62.58 -81.6,90.9 -46.44,45.07 -94.16,78.99 -143.04,101.63 -49.69,23.04 -100.46,34.54 -152.15,34.54 -51.18,0 -95.22,-10.98 -131.95,-32.88 -37.06,-22.07 -66.17,-54.99 -87.2,-98.64 -20.28,-41.55 -31.08,-91.07 -32.35,-148.4 -1.25,-55.88 6.55,-119.27 23.43,-190.09 19.88,-83.4 47.98,-157.78 84.22,-223.04 36.45,-65.7 81.1,-121.99 133.81,-168.88l0.23 -0.17c42.33,-36.6 84.99,-64.36 127.84,-82.99 43.4,-18.83 87.21,-28.58 131.37,-29.05 42.02,-0.09 78.7,6.91 110.24,20.83 32.15,14.21 58.69,35.63 79.57,64.12 23.95,32.28 39.29,72.18 45.98,119.63 6.46,45.96 4.85,99.33 -4.88,159.99l-2.92 18.07 -554.19 0c-16.53,77.35 -24.95,145.21 -25.28,203.49 -0.38,61.24 8.11,111.98 25.34,152.01l0.09 0.24c13.29,31.8 31.49,55.51 54.46,71.04 22.94,15.5 51.41,23.26 85.3,23.26 54.61,0 108.76,-17.93 162.36,-53.75 54.94,-36.7 109.45,-92.22 163.51,-166.43l10.09 -13.85 53.96 25.83 -10.73 20.25zm-111.34 -355.34c1.25,-12.69 1.91,-24.69 2.02,-35.93 0.41,-45.61 -8.15,-80.66 -25.64,-105 -16.75,-23.32 -42.75,-37.55 -77.86,-42.56 -9.26,-1.32 -18.95,-2.05 -28.97,-2.14 -47.71,-0.54 -92.77,16.67 -135.08,51.62 -37.41,30.91 -72.8,75.62 -106.09,134.01l371.62 0zm-4933.32 -973.05l-415.72 0 11.78 -73.34 15.73 -1.75c26.07,-2.88 48.65,-7.61 67.53,-14.21 17.82,-6.22 32.49,-14.22 43.89,-24.01 10.3,-9.69 19.16,-23.09 26.47,-39.97 7.9,-18.18 13.97,-40.43 18.16,-66.5l145.7 -906.31c6.61,-41.14 4.38,-71.08 -6.67,-89.73 -9.67,-16.32 -28.15,-24.5 -55.39,-24.5l-17.32 0.83 -55.07 5.64 12.34 -76.57 13.71 -3.13c28.72,-6.56 64.41,-17.02 107.07,-31.33 42.5,-14.27 92.75,-32.73 150.61,-55.3l33.76 -13.16 -194.14 1207.66c-4.34,27.04 -5.47,49.52 -3.42,67.44 1.71,15.16 5.65,26.53 11.65,34.03 7.42,7.37 18.59,13.51 33.3,18.29 16.68,5.42 37.6,9.03 62.55,10.74l22.91 1.6 -11.84 73.58 -17.59 0zm537.75 -1285.24c-5.26,32.75 -16.55,57.74 -33.87,74.97 -18.07,18.01 -41.65,26.98 -70.7,26.98 -14.73,0 -27.78,-3.65 -39.04,-10.85 -11.25,-7.2 -20.15,-17.77 -26.59,-31.58l-0.08 -0.26c-4.69,-10.38 -7.84,-21.1 -9.3,-32.08 -1.44,-11.18 -1.25,-22.57 0.63,-34.27 1.68,-10.55 5.23,-21.27 10.48,-32.1 5,-10.25 11.57,-20.73 19.65,-31.39l0.4 -0.52c9.11,-11.26 19.65,-19.91 31.45,-25.72 11.86,-5.86 24.86,-8.86 38.83,-8.86 12.73,0 24.57,2.7 35.43,7.99 10.76,5.28 20.3,13.1 28.51,23.33l1.63 2.29c6.4,10.59 10.67,22.07 12.71,34.27 2.04,11.93 1.96,24.62 -0.14,37.8zm-86.29 1285.24l-419.28 0 11.69 -72.63 16.92 -0.71c28.41,-1.15 52.32,-4.52 71.56,-10.01 17.54,-5.02 30.9,-11.81 39.89,-20.19 12.09,-11.01 22.57,-27.89 31.53,-50.65 9.61,-24.47 17.43,-55.26 23.37,-92.35l67.23 -418.3c2.73,-17.03 4.11,-32.47 4.11,-46.22 0,-21.53 -3.4,-37.72 -10.15,-48.48 -5.69,-9.08 -14.57,-14.73 -26.53,-16.78 -3.73,-0.63 -7.99,-0.95 -12.72,-0.95 -6.23,0 -13.84,0.65 -22.72,1.99 -8.85,1.32 -19.21,3.41 -31.05,6.29l-30.41 7.41 12.53 -77.65 12.5 -3.82c28.43,-8.65 63.78,-21.32 106.01,-37.88 42.26,-16.55 91.53,-37.09 147.66,-61.43l34.68 -15.03 -115.42 717.85c-5.29,33.08 -7.52,61.03 -6.61,83.68 0.84,20.56 4.17,36.19 9.97,46.65 4.87,8.89 14.15,16.26 27.76,22.14 15.94,6.87 37.3,11.48 63.96,13.73l22.59 1.92 -11.48 71.42 -17.59 0zm844.38 0l-357.22 0 11.43 -70.92 15.06 -2.25c19.22,-2.85 35.75,-6.98 49.55,-12.34 12.77,-4.95 23.36,-11.07 31.59,-18.23 11.97,-12.19 22.35,-29.07 31.06,-50.67 9.42,-23.37 16.86,-51.82 22.19,-85.19l60.34 -375.22c3.63,-22.59 5.44,-43.34 5.44,-62.17 0,-36.03 -6.81,-63.81 -20.38,-83.18 -12.86,-18.4 -32.79,-29.96 -59.57,-34.59 -9,-1.56 -19.09,-2.33 -30.14,-2.33 -23.88,0 -52,10.01 -84.3,30 -32.95,20.36 -69.82,50.87 -110.55,91.33l-81.3 505.77c-4.74,29.5 -0.42,51.79 12.92,66.84 14.38,16.21 39.87,26.18 76.38,29.89l22.12 2.27 -11.42 70.99 -383.33 0 11.5 -71.46 15.74 -1.8c19.76,-2.22 37.14,-6.44 51.94,-12.56 13.98,-5.77 25.84,-13.4 35.49,-22.82 8.92,-9.78 16.84,-23.74 23.68,-41.81 7.46,-19.8 13.55,-44.21 18.17,-73l72.43 -450.55c3.31,-20.67 4.98,-39.13 4.98,-55.32 0,-22.64 -3.23,-39.58 -9.67,-50.78 -5.17,-8.97 -13.11,-14.42 -23.68,-16.26 -2.81,-0.47 -6.15,-0.73 -9.92,-0.73 -7,0 -13.71,0.28 -20.07,0.84 -6.81,0.58 -13,1.4 -18.34,2.4l-29.05 5.49 11.9 -73.82 12.13 -3.98c39.01,-12.78 76.7,-25.79 112.73,-38.91 37.29,-13.58 74.47,-27.82 111.32,-42.63l33.97 -13.64 -26.18 162.86 57.67 -50.3c26.04,-22.37 45.55,-38.46 58.22,-48.03l0.64 -0.5c27.93,-19.44 54.9,-34.14 80.91,-43.97 26.81,-10.16 52.67,-15.26 77.51,-15.26 11.18,0 22.01,0.9 32.39,2.7 41.6,7.18 72.95,28.58 93.94,64.07 19.74,33.36 29.64,78.88 29.64,136.54 0,34.2 -3.53,73.15 -10.53,116.82l-70.42 438.05c-6.28,39.07 -2.92,68.81 10.08,89.11 12.53,19.54 35.41,31.61 68.55,36.08l21.35 2.9 -11.3 70.27 -17.59 0zm530.68 -1285.24c-5.25,32.75 -16.55,57.74 -33.87,74.97 -18.07,18.01 -41.64,26.98 -70.69,26.98 -14.74,0 -27.79,-3.65 -39.04,-10.85 -11.26,-7.2 -20.16,-17.77 -26.6,-31.58l-0.08 -0.26c-4.69,-10.38 -7.84,-21.1 -9.29,-32.08 -1.44,-11.18 -1.26,-22.57 0.62,-34.27 1.69,-10.55 5.23,-21.27 10.48,-32.1 5.01,-10.25 11.57,-20.73 19.66,-31.39l0.39 -0.52c9.11,-11.26 19.66,-19.91 31.45,-25.72 11.86,-5.86 24.87,-8.86 38.83,-8.86 12.74,0 24.58,2.7 35.44,7.99 10.75,5.28 20.3,13.1 28.51,23.33l1.62 2.29c6.4,10.59 10.67,22.07 12.72,34.27 2.04,11.93 1.96,24.62 -0.15,37.8zm-86.29 1285.24l-419.28 0 11.7 -72.63 16.92 -0.71c28.41,-1.15 52.31,-4.52 71.55,-10.01 17.55,-5.02 30.91,-11.81 39.89,-20.19 12.09,-11.01 22.57,-27.89 31.54,-50.65 9.6,-24.47 17.42,-55.26 23.36,-92.35l67.24 -418.3c2.73,-17.03 4.1,-32.47 4.1,-46.22 0,-21.53 -3.39,-37.72 -10.15,-48.48 -5.69,-9.08 -14.57,-14.73 -26.53,-16.78 -3.73,-0.63 -7.98,-0.95 -12.71,-0.95 -6.23,0 -13.84,0.65 -22.72,1.99 -8.86,1.32 -19.22,3.41 -31.06,6.29l-30.4 7.41 12.52 -77.65 12.51 -3.82c28.43,-8.65 63.77,-21.32 106,-37.88 42.27,-16.55 91.54,-37.09 147.67,-61.43l34.68 -15.03 -115.43 717.85c-5.29,33.08 -7.52,61.03 -6.6,83.68 0.83,20.56 4.17,36.19 9.96,46.65 4.88,8.89 14.15,16.26 27.76,22.14 15.95,6.87 37.31,11.48 63.97,13.73l22.59 1.92 -11.48 71.42 -17.6 0zm789.42 -298.29c-58.84,103 -120.99,180.59 -186.39,232.64 -66.96,53.31 -137.31,79.99 -210.92,79.99 -42.96,0 -81.95,-9.51 -116.74,-28.49 -34.53,-18.86 -64.69,-46.96 -90.25,-84.29 -59.19,-85.61 -76.69,-203.57 -52.56,-353.79 12.67,-78.9 34.33,-150.07 64.9,-213.39 30.77,-63.72 70.57,-119.41 119.37,-166.97 43.91,-42.3 90.1,-74.06 138.41,-95.27 48.73,-21.38 99.46,-32.03 152.13,-32.03 36.03,0 68.96,5.34 98.5,15.99 29.86,10.81 56.12,27.07 78.55,48.71l0.23 0.23c22.53,22.53 38.47,46.5 47.73,71.82 9.46,25.85 11.94,52.96 7.42,81.19 -4.21,26.2 -13.11,47.15 -26.7,62.78 -14.11,16.36 -32.83,26.39 -56.02,30.07 -24.56,4.39 -44.06,-4.3 -58.51,-26.01 -11.52,-17.36 -18.99,-43.75 -22.34,-78.94l-3.21 -45.14c-1.31,-20.62 -9.71,-35.73 -25.14,-45.27 -18.17,-11.26 -46.06,-16.34 -83.53,-15.26 -24.66,0.54 -49.73,6.18 -75.18,16.84 -25.99,10.87 -52.42,27.07 -79.22,48.55 -37.87,30.72 -68.74,68.42 -92.39,112.85 -23.95,44.94 -40.69,96.93 -50.15,155.81 -9.96,62.13 -11.28,117.86 -3.88,167.04 7.26,48.14 23.01,90.32 47.21,126.4l0.17 0.32c21.32,33.06 46.48,56.88 75.3,71.25 28.64,14.31 61.48,19.57 98.42,15.72 25.92,-2.68 50.35,-8.99 73.24,-18.89 22.69,-9.84 43.95,-23.39 63.73,-40.6 12.51,-11.09 27.83,-27.43 45.85,-48.92 18.6,-22.14 39.29,-48.73 61.91,-79.62l9.58 -13.1 62.82 26.16 -12.34 21.62zm750.07 210.87c-28.78,33.14 -57.42,58.22 -85.79,75.19 -29.65,17.7 -58.92,26.57 -87.8,26.57 -3.53,0 -7.03,-0.24 -10.43,-0.67 -24.51,-3.31 -42.76,-17.12 -54.69,-41.49 -10.02,-20.51 -15.08,-49.05 -15.06,-85.39 -0.09,-6.37 0.08,-13.07 0.41,-20.1 -55.67,43.52 -104.87,77.41 -147.48,101.58 -54.14,30.72 -98.56,46.07 -133.03,46.07 -26.37,0 -49.94,-4.78 -70.64,-14.38 -21.13,-9.83 -38.93,-24.6 -53.25,-44.34 -16.17,-21.18 -26.95,-45.78 -32.18,-73.65 -5.13,-27.19 -5.02,-57.58 0.36,-91.07 7.77,-48.42 25.3,-93.21 52.41,-134.22 26.83,-40.51 63.18,-77.37 108.88,-110.49l0.15 -0.17c31.18,-22.07 76.47,-47.95 135.79,-77.61 56.31,-28.14 125.72,-59.92 208.11,-95.27l21.07 -101.45c10.71,-51.32 7.12,-88.78 -10.8,-112.32 -17.82,-23.41 -51.56,-35.15 -101.23,-35.15 -14.78,0 -29.55,2.16 -44.12,6.35 -15.05,4.33 -30.14,10.88 -45.13,19.53l-0.73 0.43c-16.06,8.41 -28.28,17.46 -36.64,27.02 -4.25,4.93 -7.52,9.99 -9.85,15.22l-3.07 11.11 -0.1 2.96c-0.52,10.53 -2.04,32.51 -4.57,65.52 -0.81,13.32 -3.41,25.92 -7.65,37.57 -4.35,11.96 -10.58,23.11 -18.5,33.21l-0.32 0.41c-8.27,10.07 -17.69,17.79 -28.01,23 -10.77,5.36 -22.3,8.11 -34.51,8.11 -55.42,0 -77.7,-35.26 -66.39,-105.71 4.28,-26.7 14.24,-52.38 29.66,-76.92 15.03,-23.93 35.44,-46.8 61.01,-68.57 31.97,-27.84 67.4,-48.68 106.08,-62.56 38.69,-13.88 80.37,-20.79 125,-20.79 56.29,0 101.83,10.2 136.55,30.54 36.5,21.38 60.65,53.37 72.43,95.9l0.17 0.58c5.02,20.41 6.6,48.68 4.79,84.63 -1.73,34.5 -6.63,76.61 -14.59,126.18l-60.07 373.68c-12.4,77.15 -2.08,115.76 30.95,115.76 13.97,0 34.98,-9.96 62.3,-29.87l40.64 -29.6 -16.11 100.05 -4.02 4.62zm-232.58 -209.23l37.18 -231.2c-99.31,39.82 -176.55,80.55 -231.68,122.12 -58.15,43.79 -90.81,87.94 -97.93,132.34l-0.84 5.19c-7.15,44.51 -3.67,78.21 10.47,100.89 13.5,21.66 38.16,34.54 73.88,38.52 14.99,1.49 32.83,-1.45 53.4,-8.76 22.07,-7.8 46.83,-20.58 74.13,-38.11 23.22,-15.04 41.65,-32.71 55.15,-52.85 13.4,-20.02 22.18,-42.81 26.24,-68.14z"/>
   <polygon class="fil1" points="1059.71,1 1153.61,1 2114.37,1 2114.37,1104.05 3177.86,1104.05 3177.86,2197.93 2114.37,2197.93 2114.37,3301 1059.71,3301 1059.71,2197.93 -3.8,2197.93 -3.8,1104.05 1059.71,1104.05 1059.71,98.17 "/>
  </g>
 </g>
</svg>
